PathFileType	4	(X/Y/Z)	TVC_4_BWA_7_walk_RCNL2025.trc
DataRate	CameraRate	NumFrames	NumMarkers	Units	OrigDataRate	OrigDataStartFrame	OrigNumFrames
100	100	5	27	mm	100	356	474
Frame#	Time	R_Shoulder			L_Shoulder			C7			J_Notch			R_Elbow			L_Elbow			R_Wrist			L_Wrist			R_Asis			L_Asis			R_Psis			L_Psis			Sacral			Thoracic			Sternum			R_Thigh_Lateral			R_Knee_Lateral			R_Shank_Lateral			R_Ankle_Lateral			R_Heel			R_Toe			L_Thigh_Lateral			L_Knee_Lateral			L_Shank_Lateral			L_Ankle_Lateral			L_Heel			L_Toe		
		X1	Y1	Z1	X2	Y2	Z2	X3	Y3	Z3	X4	Y4	Z4	X5	Y5	Z5	X6	Y6	Z6	X7	Y7	Z7	X8	Y8	Z8	X9	Y9	Z9	X10	Y10	Z10	X11	Y11	Z11	X12	Y12	Z12	X13	Y13	Z13	X14	Y14	Z14	X15	Y15	Z15	X16	Y16	Z16	X17	Y17	Z17	X18	Y18	Z18	X19	Y19	Z19	X20	Y20	Z20	X21	Y21	Z21	X22	Y22	Z22	X23	Y23	Z23	X24	Y24	Z24	X25	Y25	Z25	X26	Y26	Z26	X27	Y27	Z27
356	3.55000000	1252.203735	1289.885010	56.643005	1233.917358	1308.672729	-325.066193	1183.300171	1361.278320	-116.142746	1330.336426	1248.293701	-148.501297	1292.640137	976.485535	123.618759	1124.028809	997.829468	-370.044250	1442.907349	803.480133	87.601063	1158.158020	784.701935	-390.679916	1265.339111	853.183289	29.752939	1231.753296	840.888367	-319.023926	1107.255981	881.651001	-81.549606	1101.821045	876.127197	-173.260696	1104.538513	878.889099	-127.405151	1107.791260	1112.337036	-120.232071	1370.601929	1058.622559	-155.311005	1220.689331	501.445953	35.091034	1182.822632	415.693085	-20.336002	1120.454346	251.068008	39.058380	1047.576172	54.163364	-64.428352	997.716614	56.063412	-108.212677	1173.371582	36.068615	-89.091644	1322.002197	487.785248	-329.151764	1346.163086	415.321747	-277.685913	1368.664673	294.491364	-318.667480	1454.087036	54.956661	-230.321487	1421.462646	36.085773	-174.909973	1587.070557	84.873688	-237.471085
357	3.56000000	1260.734009	1288.367798	56.182728	1242.833984	1306.854004	-325.617432	1191.921509	1359.612183	-116.747566	1339.343750	1247.010620	-148.868484	1303.157593	975.134766	123.013779	1132.673218	996.155518	-370.256348	1455.267029	803.895538	85.934887	1165.653320	783.019867	-391.224884	1275.524414	851.155701	29.309666	1242.363525	839.291504	-319.148315	1117.025757	879.699646	-82.201782	1111.846924	874.331543	-173.916458	1114.436340	877.015594	-128.059120	1117.025879	1110.466064	-120.736382	1380.144775	1057.266968	-155.388275	1227.026489	499.812378	34.853291	1188.193726	414.573395	-20.743542	1123.273560	250.997192	38.945950	1047.770752	54.889660	-64.345116	997.972473	57.240173	-108.043076	1173.388916	36.009529	-89.047676	1331.941772	486.190063	-328.671112	1357.338623	414.050720	-277.190186	1381.017578	293.251862	-317.798035	1465.613281	54.298492	-228.959366	1432.009644	35.640289	-173.992950	1598.743774	82.977043	-234.029282
358	3.57000000	1269.258057	1286.935791	55.646801	1251.796631	1305.119385	-326.250702	1200.581421	1358.046021	-117.441605	1348.395142	1245.840820	-149.316101	1313.416504	973.838257	122.329987	1141.591187	994.498535	-370.601532	1467.189819	804.197754	84.279137	1173.580505	781.386505	-391.888687	1285.803467	849.165710	28.840609	1252.992432	837.859436	-319.320831	1126.895142	877.850891	-82.799164	1121.926392	872.680725	-174.528442	1124.410767	875.265808	-128.663803	1126.325684	1108.691284	-121.304909	1389.758545	1056.037964	-155.544144	1233.850586	498.138794	34.489483	1194.076416	413.423920	-21.269852	1126.591064	250.909134	38.766479	1048.027954	55.834106	-64.251396	998.286194	58.690495	-107.875359	1173.482178	35.981121	-88.990494	1342.671875	485.168030	-328.059723	1369.012085	413.127472	-276.679169	1393.374023	292.285156	-317.009247	1475.103516	53.489830	-227.814667	1440.298584	35.325512	-173.361771	1608.460083	79.577393	-230.553375
359	3.58000000	1277.797363	1285.633911	55.037502	1260.801147	1303.505127	-326.961456	1209.288086	1356.613403	-118.219521	1357.492676	1244.815430	-149.843872	1323.401855	972.630066	121.567085	1150.774780	992.894531	-371.070435	1478.655029	804.396393	82.645857	1181.947083	779.833618	-392.661682	1296.139160	847.251587	28.350422	1263.620850	836.650513	-319.546478	1136.849121	876.139587	-83.341072	1132.046875	871.213318	-175.096756	1134.447998	873.676453	-129.218914	1135.688232	1107.050049	-121.927673	1399.441895	1054.977051	-155.782410	1241.215698	496.466675	33.988407	1200.559570	412.270935	-21.915831	1130.472412	250.818710	38.501362	1048.375122	57.059490	-64.151718	998.695374	60.499596	-107.712479	1173.670898	35.989616	-88.924545	1354.199097	484.771606	-327.364960	1381.115234	412.586792	-276.150116	1405.743408	291.633423	-316.296661	1482.766357	52.597992	-226.880814	1446.615234	35.213520	-172.985779	1616.429443	74.886551	-227.148972
360	3.59000000	1286.374634	1284.505615	54.358009	1269.843872	1302.046631	-327.743500	1218.049438	1355.345093	-119.074402	1366.638306	1243.962402	-150.449936	1333.101074	971.544128	120.725677	1160.212891	991.379639	-371.652222	1489.640442	804.504822	81.045446	1190.758850	778.393158	-393.533310	1306.491943	845.451477	27.840868	1274.227905	835.719116	-319.827637	1146.869629	874.597778	-83.830086	1142.194580	869.963623	-175.624374	1144.532104	872.280701	-129.727230	1145.109985	1105.577271	-122.594261	1409.191406	1054.121948	-156.105682	1249.173584	494.846924	33.344685	1207.733521	411.147491	-22.672472	1134.950439	250.777130	38.140331	1048.851685	58.638569	-64.048149	999.256836	62.770489	-107.553734	1173.963501	36.033066	-88.858940	1366.518188	485.040863	-326.627502	1393.544067	412.444489	-275.600708	1418.113403	291.333618	-315.658264	1488.847290	51.700031	-226.146484	1451.291260	35.355175	-172.833801	1622.886719	69.244644	-223.920395
